<?xml version="1.0" ?><svg data-name="Layer 1" id="Layer_1" viewBox="0 0 64 64" xmlns="http://www.w3.org/2000/svg"><title/><circle cx="32" cy="32" r="32"/><path d="M55.34,30.87a12.14,12.14,0,0,1-6.42-15q-.39-.42-.81-.81a12.08,12.08,0,0,1-3.92.66A12.19,12.19,0,0,1,33.13,8.66c-.37,0-.75,0-1.13,0s-.76,0-1.13,0a12.19,12.19,0,0,1-11.06,7.08,12.08,12.08,0,0,1-3.92-.66q-.42.39-.81.81a12.08,12.08,0,0,1,.66,3.92A12.19,12.19,0,0,1,8.66,30.87c0,.37,0,.75,0,1.13s0,.76,0,1.13a12.19,12.19,0,0,1,7.08,11.06,12.08,12.08,0,0,1-.66,3.92q.39.42.81.81a12.14,12.14,0,0,1,15,6.42c.37,0,.75,0,1.13,0s.76,0,1.13,0a12.14,12.14,0,0,1,15-6.42q.42-.39.81-.81a12.14,12.14,0,0,1,6.42-15c0-.37,0-.75,0-1.13S55.36,31.24,55.34,30.87Z" style="fill:none;stroke:#ae1717;stroke-linecap:round;stroke-linejoin:round;stroke-width:3px"/><path d="M32,45a16.17,16.17,0,0,0-9-4,16.17,16.17,0,0,0-4-9,16.17,16.17,0,0,0,4-9,16.17,16.17,0,0,0,9-4,16.17,16.17,0,0,0,9,4,16.17,16.17,0,0,0,4,9,16.17,16.17,0,0,0-4,9A16.17,16.17,0,0,0,32,45Z" style="fill:none;stroke:#ae1717;stroke-linecap:round;stroke-linejoin:round;stroke-width:3px"/><line style="fill:none;stroke:#ae1717;stroke-linecap:round;stroke-linejoin:round;stroke-width:3px" x1="32" x2="32" y1="7.61" y2="56.39"/><line style="fill:none;stroke:#ae1717;stroke-linecap:round;stroke-linejoin:round;stroke-width:3px" x1="56.39" x2="7.61" y1="32" y2="32"/><line style="fill:none;stroke:#ae1717;stroke-linecap:round;stroke-linejoin:round;stroke-width:3px" x1="15.74" x2="48.26" y1="15.74" y2="48.26"/><line style="fill:none;stroke:#ae1717;stroke-linecap:round;stroke-linejoin:round;stroke-width:3px" x1="15.74" x2="48.26" y1="48.26" y2="15.74"/><path d="M55.34,30.87a12.14,12.14,0,0,1-6.42-15q-.39-.42-.81-.81a12.08,12.08,0,0,1-3.92.66A12.19,12.19,0,0,1,33.13,8.66c-.37,0-.75,0-1.13,0s-.76,0-1.13,0a12.19,12.19,0,0,1-11.06,7.08,12.08,12.08,0,0,1-3.92-.66q-.42.39-.81.81a12.08,12.08,0,0,1,.66,3.92A12.19,12.19,0,0,1,8.66,30.87c0,.37,0,.75,0,1.13s0,.76,0,1.13a12.19,12.19,0,0,1,7.08,11.06,12.08,12.08,0,0,1-.66,3.92q.39.42.81.81a12.14,12.14,0,0,1,15,6.42c.37,0,.75,0,1.13,0s.76,0,1.13,0a12.14,12.14,0,0,1,15-6.42q.42-.39.81-.81a12.14,12.14,0,0,1,6.42-15c0-.37,0-.75,0-1.13S55.36,31.24,55.34,30.87Z" style="fill:none;stroke:#df2d2d;stroke-linecap:round;stroke-linejoin:round;stroke-width:1.5px"/><path d="M32,45a16.17,16.17,0,0,0-9-4,16.17,16.17,0,0,0-4-9,16.17,16.17,0,0,0,4-9,16.17,16.17,0,0,0,9-4,16.17,16.17,0,0,0,9,4,16.17,16.17,0,0,0,4,9,16.17,16.17,0,0,0-4,9A16.17,16.17,0,0,0,32,45Z" style="fill:none;stroke:#df2d2d;stroke-linecap:round;stroke-linejoin:round;stroke-width:1.5px"/><line style="fill:none;stroke:#df2d2d;stroke-linecap:round;stroke-linejoin:round;stroke-width:1.5px" x1="32" x2="32" y1="7.61" y2="56.39"/><line style="fill:none;stroke:#df2d2d;stroke-linecap:round;stroke-linejoin:round;stroke-width:1.5px" x1="56.39" x2="7.61" y1="32" y2="32"/><line style="fill:none;stroke:#df2d2d;stroke-linecap:round;stroke-linejoin:round;stroke-width:1.5px" x1="15.74" x2="48.26" y1="15.74" y2="48.26"/><line style="fill:none;stroke:#df2d2d;stroke-linecap:round;stroke-linejoin:round;stroke-width:1.5px" x1="15.74" x2="48.26" y1="48.26" y2="15.74"/><path d="M55.34,30.87a12.14,12.14,0,0,1-6.42-15q-.39-.42-.81-.81a12.08,12.08,0,0,1-3.92.66A12.19,12.19,0,0,1,33.13,8.66c-.37,0-.75,0-1.13,0s-.76,0-1.13,0a12.19,12.19,0,0,1-11.06,7.08,12.08,12.08,0,0,1-3.92-.66q-.42.39-.81.81a12.08,12.08,0,0,1,.66,3.92A12.19,12.19,0,0,1,8.66,30.87c0,.37,0,.75,0,1.13s0,.76,0,1.13a12.19,12.19,0,0,1,7.08,11.06,12.08,12.08,0,0,1-.66,3.92q.39.42.81.81a12.14,12.14,0,0,1,15,6.42c.37,0,.75,0,1.13,0s.76,0,1.13,0a12.14,12.14,0,0,1,15-6.42q.42-.39.81-.81a12.14,12.14,0,0,1,6.42-15c0-.37,0-.75,0-1.13S55.36,31.24,55.34,30.87Z" style="fill:none;stroke:#ff9b66;stroke-linecap:round;stroke-linejoin:round;stroke-width:0.5px"/><path d="M32,45a16.17,16.17,0,0,0-9-4,16.17,16.17,0,0,0-4-9,16.17,16.17,0,0,0,4-9,16.17,16.17,0,0,0,9-4,16.17,16.17,0,0,0,9,4,16.17,16.17,0,0,0,4,9,16.17,16.17,0,0,0-4,9A16.17,16.17,0,0,0,32,45Z" style="fill:none;stroke:#ff9b66;stroke-linecap:round;stroke-linejoin:round;stroke-width:0.5px"/><line style="fill:none;stroke:#ff9b66;stroke-linecap:round;stroke-linejoin:round;stroke-width:0.5px" x1="32" x2="32" y1="7.61" y2="56.39"/><line style="fill:none;stroke:#ff9b66;stroke-linecap:round;stroke-linejoin:round;stroke-width:0.5px" x1="56.39" x2="7.61" y1="32" y2="32"/><line style="fill:none;stroke:#ff9b66;stroke-linecap:round;stroke-linejoin:round;stroke-width:0.5px" x1="15.74" x2="48.26" y1="15.74" y2="48.26"/><line style="fill:none;stroke:#ff9b66;stroke-linecap:round;stroke-linejoin:round;stroke-width:0.5px" x1="15.74" x2="48.26" y1="48.26" y2="15.74"/></svg>