<?xml version="1.0" ?><svg data-name="Layer 1" id="Layer_1" viewBox="0 0 64 64" xmlns="http://www.w3.org/2000/svg"><title/><circle cx="32" cy="32" r="32"/><path d="M54.17,40.14A23.63,23.63,0,1,1,55.61,32" style="fill:none;stroke:#ae1717;stroke-linecap:round;stroke-linejoin:round;stroke-width:3px"/><circle cx="32" cy="32" r="17.58" style="fill:none;stroke:#13628e;stroke-linecap:round;stroke-linejoin:round;stroke-width:3px"/><polygon points="32 20.9 34.62 28.97 43.1 28.97 36.24 33.95 38.86 42.01 32 37.03 25.14 42.01 27.76 33.95 20.9 28.97 29.38 28.97 32 20.9" style="fill:none;stroke:#bbbdbf;stroke-linecap:round;stroke-linejoin:round;stroke-width:3px"/><circle cx="32" cy="32" r="17.58" style="fill:none;stroke:#00e6f0;stroke-linecap:round;stroke-linejoin:round;stroke-width:1.5px"/><circle cx="32" cy="32" r="17.58" style="fill:none;stroke:#e2faff;stroke-linecap:round;stroke-linejoin:round;stroke-width:0.5px"/><polygon points="32 20.9 34.62 28.97 43.1 28.97 36.24 33.95 38.86 42.01 32 37.03 25.14 42.01 27.76 33.95 20.9 28.97 29.38 28.97 32 20.9" style="fill:none;stroke:#e6e7e8;stroke-linecap:round;stroke-linejoin:round;stroke-width:1.5px"/><polygon points="32 20.9 34.62 28.97 43.1 28.97 36.24 33.95 38.86 42.01 32 37.03 25.14 42.01 27.76 33.95 20.9 28.97 29.38 28.97 32 20.9" style="fill:none;stroke:#e2faff;stroke-linecap:round;stroke-linejoin:round;stroke-width:0.5px"/><path d="M54.17,40.14A23.63,23.63,0,1,1,55.61,32" style="fill:none;stroke:#df2d2d;stroke-linecap:round;stroke-linejoin:round;stroke-width:1.5px"/><path d="M54.17,40.14A23.63,23.63,0,1,1,55.61,32" style="fill:none;stroke:#ff9b66;stroke-linecap:round;stroke-linejoin:round;stroke-width:0.5px"/><path d="M54.17,40.14A23.63,23.63,0,1,1,55.61,32" style="fill:none;stroke:#ae1717;stroke-linecap:round;stroke-linejoin:round;stroke-width:3px"/><circle cx="32" cy="32" r="17.58" style="fill:none;stroke:#13628e;stroke-linecap:round;stroke-linejoin:round;stroke-width:3px"/><polygon points="32 20.9 34.62 28.97 43.1 28.97 36.24 33.95 38.86 42.01 32 37.03 25.14 42.01 27.76 33.95 20.9 28.97 29.38 28.97 32 20.9" style="fill:none;stroke:#bbbdbf;stroke-linecap:round;stroke-linejoin:round;stroke-width:3px"/><circle cx="32" cy="32" r="17.58" style="fill:none;stroke:#00e6f0;stroke-linecap:round;stroke-linejoin:round;stroke-width:1.5px"/><circle cx="32" cy="32" r="17.58" style="fill:none;stroke:#e2faff;stroke-linecap:round;stroke-linejoin:round;stroke-width:0.5px"/><polygon points="32 20.9 34.62 28.97 43.1 28.97 36.24 33.95 38.86 42.01 32 37.03 25.14 42.01 27.76 33.95 20.9 28.97 29.38 28.97 32 20.9" style="fill:none;stroke:#e6e7e8;stroke-linecap:round;stroke-linejoin:round;stroke-width:1.5px"/><polygon points="32 20.9 34.62 28.97 43.1 28.97 36.24 33.95 38.86 42.01 32 37.03 25.14 42.01 27.76 33.95 20.9 28.97 29.38 28.97 32 20.9" style="fill:none;stroke:#e2faff;stroke-linecap:round;stroke-linejoin:round;stroke-width:0.5px"/><path d="M54.17,40.14A23.63,23.63,0,1,1,55.61,32" style="fill:none;stroke:#df2d2d;stroke-linecap:round;stroke-linejoin:round;stroke-width:1.5px"/><path d="M54.17,40.14A23.63,23.63,0,1,1,55.61,32" style="fill:none;stroke:#ff9b66;stroke-linecap:round;stroke-linejoin:round;stroke-width:0.5px"/></svg>