<?xml version="1.0" ?><svg data-name="Layer 1" id="Layer_1" viewBox="0 0 64 64" xmlns="http://www.w3.org/2000/svg"><title/><circle cx="32" cy="32" r="32"/><path d="M52.37,48.39c-1.64-2.78-6.58-3.73-6.58-3.73-4.74-.32-14.92,6.14-17.86,8a2.18,2.18,0,0,1-1.81.23l-4.63-1.48a2.19,2.19,0,0,1-1.34-1.22l-1-2.38a2.24,2.24,0,0,1-.05-1.59l1.71-4.8,4.3,2.26L34.14,37a14.67,14.67,0,0,0-9.75-6.3L20.94,35a3.91,3.91,0,0,1-2.69-4.88c-1.3.12-3.8.51-3.8.51l-2.82-4.27,1.2-5.51a2.18,2.18,0,0,1,2.35-1.7l6.23.65,6-5a7.6,7.6,0,0,1,6-1.65L39,14" style="fill:none;stroke:#ff2ae9;stroke-linecap:round;stroke-linejoin:round;stroke-width:3px"/><path d="M42.11,17.49l9-6.45s2,6.08-.67,11.58" style="fill:none;stroke:#ff2ae9;stroke-linecap:round;stroke-linejoin:round;stroke-width:3px"/><path d="M45.28,24.08l2.66,4.68-5.07.13s4.94,6.59-3.67,11" style="fill:none;stroke:#ff2ae9;stroke-linecap:round;stroke-linejoin:round;stroke-width:3px"/><line style="fill:none;stroke:#ff2ae9;stroke-linecap:round;stroke-linejoin:round;stroke-width:3px" x1="29.07" x2="35.28" y1="22.44" y2="21.05"/><path d="M52.37,48.39c-1.64-2.78-6.58-3.73-6.58-3.73-4.74-.32-14.92,6.14-17.86,8a2.18,2.18,0,0,1-1.81.23l-4.63-1.48a2.19,2.19,0,0,1-1.34-1.22l-1-2.38a2.24,2.24,0,0,1-.05-1.59l1.71-4.8,4.3,2.26L34.14,37a14.67,14.67,0,0,0-9.75-6.3L20.94,35a3.91,3.91,0,0,1-2.69-4.88c-1.3.12-3.8.51-3.8.51l-2.82-4.27,1.2-5.51a2.18,2.18,0,0,1,2.35-1.7l6.23.65,6-5a7.6,7.6,0,0,1,6-1.65L39,14" style="fill:none;stroke:#ff90fc;stroke-linecap:round;stroke-linejoin:round;stroke-width:1.5px"/><path d="M42.11,17.49l9-6.45s2,6.08-.67,11.58" style="fill:none;stroke:#ff90fc;stroke-linecap:round;stroke-linejoin:round;stroke-width:1.5px"/><path d="M45.28,24.08l2.66,4.68-5.07.13s4.94,6.59-3.67,11" style="fill:none;stroke:#ff90fc;stroke-linecap:round;stroke-linejoin:round;stroke-width:1.5px"/><line style="fill:none;stroke:#ff90fc;stroke-linecap:round;stroke-linejoin:round;stroke-width:1.5px" x1="29.07" x2="35.28" y1="22.44" y2="21.05"/><path d="M52.37,48.39c-1.64-2.78-6.58-3.73-6.58-3.73-4.74-.32-14.92,6.14-17.86,8a2.18,2.18,0,0,1-1.81.23l-4.63-1.48a2.19,2.19,0,0,1-1.34-1.22l-1-2.38a2.24,2.24,0,0,1-.05-1.59l1.71-4.8,4.3,2.26L34.14,37a14.67,14.67,0,0,0-9.75-6.3L20.94,35a3.91,3.91,0,0,1-2.69-4.88c-1.3.12-3.8.51-3.8.51l-2.82-4.27,1.2-5.51a2.18,2.18,0,0,1,2.35-1.7l6.23.65,6-5a7.6,7.6,0,0,1,6-1.65L39,14" style="fill:none;stroke:#ffd0ee;stroke-linecap:round;stroke-linejoin:round;stroke-width:0.5px"/><path d="M42.11,17.49l9-6.45s2,6.08-.67,11.58" style="fill:none;stroke:#ffd0ee;stroke-linecap:round;stroke-linejoin:round;stroke-width:0.5px"/><path d="M45.28,24.08l2.66,4.68-5.07.13s4.94,6.59-3.67,11" style="fill:none;stroke:#ffd0ee;stroke-linecap:round;stroke-linejoin:round;stroke-width:0.5px"/><line style="fill:none;stroke:#ffd0ee;stroke-linecap:round;stroke-linejoin:round;stroke-width:0.5px" x1="29.07" x2="35.28" y1="22.44" y2="21.05"/></svg>