<?xml version="1.0" ?><svg data-name="Layer 1" id="Layer_1" viewBox="0 0 64 64" xmlns="http://www.w3.org/2000/svg"><title/><circle cx="32" cy="32" r="32"/><polygon points="32 56.11 37.1 42.55 45.45 44.52 43.48 37.1 53.91 32 43.48 26.9 45.45 19.48 37.1 21.45 32 7.89 26.9 21.45 18.55 19.48 20.52 26.9 10.09 32 20.52 37.1 18.55 44.52 26.9 42.55 32 56.11" style="fill:none;stroke:#ffb700;stroke-linecap:round;stroke-linejoin:round;stroke-width:3px"/><line style="fill:none;stroke:#ffb700;stroke-linecap:round;stroke-linejoin:round;stroke-width:3px" x1="27.03" x2="37.23" y1="21.45" y2="42.55"/><line style="fill:none;stroke:#ffb700;stroke-linecap:round;stroke-linejoin:round;stroke-width:3px" x1="20.65" x2="43.61" y1="37.1" y2="26.9"/><line style="fill:none;stroke:#ffb700;stroke-linecap:round;stroke-linejoin:round;stroke-width:3px" x1="36.97" x2="26.77" y1="21.45" y2="42.55"/><line style="fill:none;stroke:#ffb700;stroke-linecap:round;stroke-linejoin:round;stroke-width:3px" x1="43.35" x2="20.39" y1="37.1" y2="26.9"/><polygon points="32 56.11 37.1 42.55 45.45 44.52 43.48 37.1 53.91 32 43.48 26.9 45.45 19.48 37.1 21.45 32 7.89 26.9 21.45 18.55 19.48 20.52 26.9 10.09 32 20.52 37.1 18.55 44.52 26.9 42.55 32 56.11" style="fill:none;stroke:#ff0;stroke-linecap:round;stroke-linejoin:round;stroke-width:1.5px"/><line style="fill:none;stroke:#ff0;stroke-linecap:round;stroke-linejoin:round;stroke-width:1.5px" x1="27.03" x2="37.23" y1="21.45" y2="42.55"/><line style="fill:none;stroke:#ff0;stroke-linecap:round;stroke-linejoin:round;stroke-width:1.5px" x1="20.65" x2="43.61" y1="37.1" y2="26.9"/><line style="fill:none;stroke:#ff0;stroke-linecap:round;stroke-linejoin:round;stroke-width:1.5px" x1="36.97" x2="26.77" y1="21.45" y2="42.55"/><line style="fill:none;stroke:#ff0;stroke-linecap:round;stroke-linejoin:round;stroke-width:1.5px" x1="43.35" x2="20.39" y1="37.1" y2="26.9"/><polygon points="32 56.11 37.1 42.55 45.45 44.52 43.48 37.1 53.91 32 43.48 26.9 45.45 19.48 37.1 21.45 32 7.89 26.9 21.45 18.55 19.48 20.52 26.9 10.09 32 20.52 37.1 18.55 44.52 26.9 42.55 32 56.11" style="fill:none;stroke:#e2faff;stroke-linecap:round;stroke-linejoin:round;stroke-width:0.5px"/><line style="fill:none;stroke:#e2faff;stroke-linecap:round;stroke-linejoin:round;stroke-width:0.5px" x1="27.03" x2="37.23" y1="21.45" y2="42.55"/><line style="fill:none;stroke:#e2faff;stroke-linecap:round;stroke-linejoin:round;stroke-width:0.5px" x1="20.65" x2="43.61" y1="37.1" y2="26.9"/><line style="fill:none;stroke:#e2faff;stroke-linecap:round;stroke-linejoin:round;stroke-width:0.5px" x1="36.97" x2="26.77" y1="21.45" y2="42.55"/><line style="fill:none;stroke:#e2faff;stroke-linecap:round;stroke-linejoin:round;stroke-width:0.5px" x1="43.35" x2="20.39" y1="37.1" y2="26.9"/></svg>