<?xml version="1.0" ?><svg data-name="Layer 1" id="Layer_1" viewBox="0 0 64 64" xmlns="http://www.w3.org/2000/svg"><title/><circle cx="32" cy="32" r="32"/><line style="fill:none;stroke:#9967ff;stroke-linecap:round;stroke-linejoin:round;stroke-width:3px" x1="27.61" x2="31.33" y1="21.79" y2="18.07"/><path d="M46.43,32.16c11,11-.3,22.26-.3,22.26S49,41.26,40.83,35.26l-.33-2.17L33,25.58l-2.17-.33C24.82,17.08,11.66,20,11.66,20s11.28-11.29,22.26-.31Z" style="fill:none;stroke:#9967ff;stroke-linecap:round;stroke-linejoin:round;stroke-width:3px"/><line style="fill:none;stroke:#9967ff;stroke-linecap:round;stroke-linejoin:round;stroke-width:3px" x1="44.29" x2="48.01" y1="38.47" y2="34.75"/><polyline points="15.22 24.69 21.29 44.96 40.39 51.86" style="fill:none;stroke:#9967ff;stroke-linecap:round;stroke-linejoin:round;stroke-width:3px"/><line style="fill:none;stroke:#b58aff;stroke-linecap:round;stroke-linejoin:round;stroke-width:1.5px" x1="27.61" x2="31.33" y1="21.79" y2="18.07"/><path d="M46.43,32.16c11,11-.3,22.26-.3,22.26S49,41.26,40.83,35.26l-.33-2.17L33,25.58l-2.17-.33C24.82,17.08,11.66,20,11.66,20s11.28-11.29,22.26-.31Z" style="fill:none;stroke:#b58aff;stroke-linecap:round;stroke-linejoin:round;stroke-width:1.5px"/><line style="fill:none;stroke:#b58aff;stroke-linecap:round;stroke-linejoin:round;stroke-width:1.5px" x1="44.29" x2="48.01" y1="38.47" y2="34.75"/><polyline points="15.22 24.69 21.29 44.96 40.39 51.86" style="fill:none;stroke:#b58aff;stroke-linecap:round;stroke-linejoin:round;stroke-width:1.5px"/><line style="fill:none;stroke:#e5b2ff;stroke-linecap:round;stroke-linejoin:round;stroke-width:0.5px" x1="27.61" x2="31.33" y1="21.79" y2="18.07"/><path d="M46.43,32.16c11,11-.3,22.26-.3,22.26S49,41.26,40.83,35.26l-.33-2.17L33,25.58l-2.17-.33C24.82,17.08,11.66,20,11.66,20s11.28-11.29,22.26-.31Z" style="fill:none;stroke:#e5b2ff;stroke-linecap:round;stroke-linejoin:round;stroke-width:0.5px"/><line style="fill:none;stroke:#e5b2ff;stroke-linecap:round;stroke-linejoin:round;stroke-width:0.5px" x1="44.29" x2="48.01" y1="38.47" y2="34.75"/><polyline points="15.22 24.69 21.29 44.96 40.39 51.86" style="fill:none;stroke:#e5b2ff;stroke-linecap:round;stroke-linejoin:round;stroke-width:0.5px"/><line style="fill:none;stroke:#bbbdbf;stroke-linecap:round;stroke-linejoin:round;stroke-width:3px" x1="42.95" x2="47.86" y1="23.14" y2="18.22"/><line style="fill:none;stroke:#bbbdbf;stroke-linecap:round;stroke-linejoin:round;stroke-width:3px" x1="25.02" x2="33.83" y1="41.06" y2="32.25"/><polyline points="44.53 14.54 52.34 13.58 51.55 21.55" style="fill:none;stroke:#bbbdbf;stroke-linecap:round;stroke-linejoin:round;stroke-width:3px"/><line style="fill:none;stroke:#e6e7e8;stroke-linecap:round;stroke-linejoin:round;stroke-width:1.5px" x1="42.95" x2="47.86" y1="23.14" y2="18.22"/><line style="fill:none;stroke:#e6e7e8;stroke-linecap:round;stroke-linejoin:round;stroke-width:1.5px" x1="25.02" x2="33.83" y1="41.06" y2="32.25"/><polyline points="44.53 14.54 52.34 13.58 51.55 21.55" style="fill:none;stroke:#e6e7e8;stroke-linecap:round;stroke-linejoin:round;stroke-width:1.5px"/><line style="fill:none;stroke:#e2faff;stroke-linecap:round;stroke-linejoin:round;stroke-width:0.5px" x1="42.95" x2="47.86" y1="23.14" y2="18.22"/><line style="fill:none;stroke:#e2faff;stroke-linecap:round;stroke-linejoin:round;stroke-width:0.5px" x1="25.02" x2="33.83" y1="41.06" y2="32.25"/><polyline points="44.53 14.54 52.34 13.58 51.55 21.55" style="fill:none;stroke:#e2faff;stroke-linecap:round;stroke-linejoin:round;stroke-width:0.5px"/></svg>