<?xml version="1.0" ?><svg data-name="Layer 1" id="Layer_1" viewBox="0 0 64 64" xmlns="http://www.w3.org/2000/svg"><title/><circle cx="32" cy="32" r="32"/><path d="M40,30.81A4.8,4.8,0,1,1,33.19,24c1.88-1.87,6.61-3.57,8.48-1.69S41.85,28.93,40,30.81Z" style="fill:none;stroke:#ff6800;stroke-linecap:round;stroke-linejoin:round;stroke-width:3px"/><polyline points="40.15 21.59 41.67 17.81 44.22 17.52" style="fill:none;stroke:#ff6800;stroke-linecap:round;stroke-linejoin:round;stroke-width:3px"/><path d="M36.26,21.18l2.19-8.41a5.66,5.66,0,0,0-2-4.23" style="fill:none;stroke:#ff6800;stroke-linecap:round;stroke-linejoin:round;stroke-width:3px"/><path d="M27.38,28.46,27,26.67l1.66-9.41a.86.86,0,0,0,0-.39l-1.35-4.05" style="fill:none;stroke:#ff6800;stroke-linecap:round;stroke-linejoin:round;stroke-width:3px"/><path d="M23.18,25.6l-1.85-2.19-5.95.22a.81.81,0,0,1-.91-.53l-.62-1.89" style="fill:none;stroke:#ff6800;stroke-linecap:round;stroke-linejoin:round;stroke-width:3px"/><path d="M24.05,30.76l-2-.82-7.44,1.83a.68.68,0,0,1-.4,0l-5.64-.88" style="fill:none;stroke:#ff6800;stroke-linecap:round;stroke-linejoin:round;stroke-width:3px"/><path d="M35.54,36.62l1.79.4,9.41-1.66a.86.86,0,0,1,.39,0l4,1.35" style="fill:none;stroke:#ff6800;stroke-linecap:round;stroke-linejoin:round;stroke-width:3px"/><path d="M38.4,40.82l2.19,1.85-.22,5.95a.81.81,0,0,0,.53.91l1.89.62" style="fill:none;stroke:#ff6800;stroke-linecap:round;stroke-linejoin:round;stroke-width:3px"/><path d="M33.24,40l.82,2-1.83,7.44a.68.68,0,0,0,0,.4l.88,5.64" style="fill:none;stroke:#ff6800;stroke-linecap:round;stroke-linejoin:round;stroke-width:3px"/><path d="M23,48.39a23,23,0,0,1-7.34-7.34" style="fill:none;stroke:#ff6800;stroke-linecap:round;stroke-linejoin:round;stroke-width:3px"/><path d="M25,34.27c-3.06.33-11.56,2-9.76,14.54" style="fill:none;stroke:#ff6800;stroke-linecap:round;stroke-linejoin:round;stroke-width:3px"/><path d="M26.73,46a21.21,21.21,0,0,1-5-3.76,20.94,20.94,0,0,1-3.76-5" style="fill:none;stroke:#ff6800;stroke-linecap:round;stroke-linejoin:round;stroke-width:3px"/><path d="M28.8,41.85a22.9,22.9,0,0,1-6.65-6.65" style="fill:none;stroke:#ff6800;stroke-linecap:round;stroke-linejoin:round;stroke-width:3px"/><path d="M29.73,39.05c-.33,3.06-2,11.56-14.54,9.76" style="fill:none;stroke:#ff6800;stroke-linecap:round;stroke-linejoin:round;stroke-width:3px"/><polyline points="42.41 23.85 46.19 22.33 46.48 19.78" style="fill:none;stroke:#ff6800;stroke-linecap:round;stroke-linejoin:round;stroke-width:3px"/><path d="M42.82,27.74l8.41-2.19a5.66,5.66,0,0,1,4.23,2" style="fill:none;stroke:#ff6800;stroke-linecap:round;stroke-linejoin:round;stroke-width:3px"/><path d="M40,30.81A4.8,4.8,0,1,1,33.19,24c1.88-1.87,6.61-3.57,8.48-1.69S41.85,28.93,40,30.81Z" style="fill:none;stroke:#ffb700;stroke-linecap:round;stroke-linejoin:round;stroke-width:1.5px"/><polyline points="40.15 21.59 41.67 17.81 44.22 17.52" style="fill:none;stroke:#ffb700;stroke-linecap:round;stroke-linejoin:round;stroke-width:1.5px"/><path d="M36.26,21.18l2.19-8.41a5.66,5.66,0,0,0-2-4.23" style="fill:none;stroke:#ffb700;stroke-linecap:round;stroke-linejoin:round;stroke-width:1.5px"/><path d="M27.38,28.46,27,26.67l1.66-9.41a.86.86,0,0,0,0-.39l-1.35-4.05" style="fill:none;stroke:#ffb700;stroke-linecap:round;stroke-linejoin:round;stroke-width:1.5px"/><path d="M23.18,25.6l-1.85-2.19-5.95.22a.81.81,0,0,1-.91-.53l-.62-1.89" style="fill:none;stroke:#ffb700;stroke-linecap:round;stroke-linejoin:round;stroke-width:1.5px"/><path d="M24.05,30.76l-2-.82-7.44,1.83a.68.68,0,0,1-.4,0l-5.64-.88" style="fill:none;stroke:#ffb700;stroke-linecap:round;stroke-linejoin:round;stroke-width:1.5px"/><path d="M35.54,36.62l1.79.4,9.41-1.66a.86.86,0,0,1,.39,0l4,1.35" style="fill:none;stroke:#ffb700;stroke-linecap:round;stroke-linejoin:round;stroke-width:1.5px"/><path d="M38.4,40.82l2.19,1.85-.22,5.95a.81.81,0,0,0,.53.91l1.89.62" style="fill:none;stroke:#ffb700;stroke-linecap:round;stroke-linejoin:round;stroke-width:1.5px"/><path d="M33.24,40l.82,2-1.83,7.44a.68.68,0,0,0,0,.4l.88,5.64" style="fill:none;stroke:#ffb700;stroke-linecap:round;stroke-linejoin:round;stroke-width:1.5px"/><path d="M23,48.39a23,23,0,0,1-7.34-7.34" style="fill:none;stroke:#ffb700;stroke-linecap:round;stroke-linejoin:round;stroke-width:1.5px"/><path d="M25,34.27c-3.06.33-11.56,2-9.76,14.54" style="fill:none;stroke:#ffb700;stroke-linecap:round;stroke-linejoin:round;stroke-width:1.5px"/><path d="M26.73,46a21.21,21.21,0,0,1-5-3.76,20.94,20.94,0,0,1-3.76-5" style="fill:none;stroke:#ffb700;stroke-linecap:round;stroke-linejoin:round;stroke-width:1.5px"/><path d="M28.8,41.85a22.9,22.9,0,0,1-6.65-6.65" style="fill:none;stroke:#ffb700;stroke-linecap:round;stroke-linejoin:round;stroke-width:1.5px"/><path d="M29.73,39.05c-.33,3.06-2,11.56-14.54,9.76" style="fill:none;stroke:#ffb700;stroke-linecap:round;stroke-linejoin:round;stroke-width:1.5px"/><polyline points="42.41 23.85 46.19 22.33 46.48 19.78" style="fill:none;stroke:#ffb700;stroke-linecap:round;stroke-linejoin:round;stroke-width:1.5px"/><path d="M42.82,27.74l8.41-2.19a5.66,5.66,0,0,1,4.23,2" style="fill:none;stroke:#ffb700;stroke-linecap:round;stroke-linejoin:round;stroke-width:1.5px"/><path d="M40,30.81A4.8,4.8,0,1,1,33.19,24c1.88-1.87,6.61-3.57,8.48-1.69S41.85,28.93,40,30.81Z" style="fill:none;stroke:#ff0;stroke-linecap:round;stroke-linejoin:round;stroke-width:0.5px"/><polyline points="40.15 21.59 41.67 17.81 44.22 17.52" style="fill:none;stroke:#ff0;stroke-linecap:round;stroke-linejoin:round;stroke-width:0.5px"/><path d="M36.26,21.18l2.19-8.41a5.66,5.66,0,0,0-2-4.23" style="fill:none;stroke:#ff0;stroke-linecap:round;stroke-linejoin:round;stroke-width:0.5px"/><path d="M27.38,28.46,27,26.67l1.66-9.41a.86.86,0,0,0,0-.39l-1.35-4.05" style="fill:none;stroke:#ff0;stroke-linecap:round;stroke-linejoin:round;stroke-width:0.5px"/><path d="M23.18,25.6l-1.85-2.19-5.95.22a.81.81,0,0,1-.91-.53l-.62-1.89" style="fill:none;stroke:#ff0;stroke-linecap:round;stroke-linejoin:round;stroke-width:0.5px"/><path d="M24.05,30.76l-2-.82-7.44,1.83a.68.68,0,0,1-.4,0l-5.64-.88" style="fill:none;stroke:#ff0;stroke-linecap:round;stroke-linejoin:round;stroke-width:0.5px"/><path d="M35.54,36.62l1.79.4,9.41-1.66a.86.86,0,0,1,.39,0l4,1.35" style="fill:none;stroke:#ff0;stroke-linecap:round;stroke-linejoin:round;stroke-width:0.5px"/><path d="M38.4,40.82l2.19,1.85-.22,5.95a.81.81,0,0,0,.53.91l1.89.62" style="fill:none;stroke:#ff0;stroke-linecap:round;stroke-linejoin:round;stroke-width:0.5px"/><path d="M33.24,40l.82,2-1.83,7.44a.68.68,0,0,0,0,.4l.88,5.64" style="fill:none;stroke:#ff0;stroke-linecap:round;stroke-linejoin:round;stroke-width:0.5px"/><path d="M23,48.39a23,23,0,0,1-7.34-7.34" style="fill:none;stroke:#ff0;stroke-linecap:round;stroke-linejoin:round;stroke-width:0.5px"/><path d="M25,34.27c-3.06.33-11.56,2-9.76,14.54" style="fill:none;stroke:#ff0;stroke-linecap:round;stroke-linejoin:round;stroke-width:0.5px"/><path d="M26.73,46a21.21,21.21,0,0,1-5-3.76,20.94,20.94,0,0,1-3.76-5" style="fill:none;stroke:#ff0;stroke-linecap:round;stroke-linejoin:round;stroke-width:0.5px"/><path d="M28.8,41.85a22.9,22.9,0,0,1-6.65-6.65" style="fill:none;stroke:#ff0;stroke-linecap:round;stroke-linejoin:round;stroke-width:0.5px"/><path d="M29.73,39.05c-.33,3.06-2,11.56-14.54,9.76" style="fill:none;stroke:#ff0;stroke-linecap:round;stroke-linejoin:round;stroke-width:0.5px"/><polyline points="42.41 23.85 46.19 22.33 46.48 19.78" style="fill:none;stroke:#ff0;stroke-linecap:round;stroke-linejoin:round;stroke-width:0.5px"/><path d="M42.82,27.74l8.41-2.19a5.66,5.66,0,0,1,4.23,2" style="fill:none;stroke:#ff0;stroke-linecap:round;stroke-linejoin:round;stroke-width:0.5px"/></svg>